G04 ---------------------------- Layer name :TOP SOLDER LAYER*
G04 EasyEDA v5.8.22, Thu, 27 Dec 2018 18:25:07 GMT*
G04 83e352a6ecc44a8a847cc623543be36f*
G04 Gerber Generator version 0.2*
G04 Scale: 100 percent, Rotated: No, Reflected: No *
G04 Dimensions in millimeters *
G04 leading zeros omitted , absolute positions ,3 integer and 3 decimal *
%FSLAX33Y33*%
%MOMM*%
G90*
G71D02*

%ADD20R,2.653208X1.203198*%
%ADD21R,1.203198X2.653208*%
%ADD22R,1.778000X1.778000*%
%ADD23C,1.778000*%

%LPD*%
G54D20*
G01X9192Y27584D03*
G01X9190Y26186D03*
G01X9189Y24785D03*
G01X9190Y23385D03*
G01X9194Y21983D03*
G01X9190Y20584D03*
G01X9192Y19185D03*
G01X9190Y17785D03*
G54D21*
G01X10594Y14989D03*
G01X11996Y14987D03*
G01X13397Y14986D03*
G01X14796Y14986D03*
G01X16197Y14986D03*
G01X17597Y14986D03*
G01X18996Y14986D03*
G01X20396Y14987D03*
G54D20*
G01X21798Y17797D03*
G01X21794Y19192D03*
G01X21794Y20591D03*
G01X21794Y21986D03*
G01X21793Y23384D03*
G01X21791Y24785D03*
G01X21794Y26183D03*
G01X21794Y27584D03*
G54D22*
G01X30988Y36017D03*
G54D23*
G01X30988Y33477D03*
G01X30988Y30937D03*
G01X30988Y28397D03*
G01X30988Y25857D03*
G01X30988Y23317D03*
G01X30988Y20777D03*
G01X30988Y18237D03*
G01X3556Y3505D03*
G01X6096Y3505D03*
G01X8636Y3505D03*
G01X11176Y3505D03*
G01X13716Y3505D03*
G01X16256Y3505D03*
G01X18796Y3505D03*
G01X21336Y3505D03*
G01X23876Y3505D03*
G54D22*
G01X26416Y3505D03*
M00*
M02*
